<svg id="svg" xmlns="http://www.w3.org/2000/svg" xmlns:xlink="http://www.w3.org/1999/xlink" width="400" height="400" viewBox="0, 0, 400,400">
  <g id="svgg">
    <path id="path0"
          d="M183.984 0.795 C 181.084 1.190,177.656 1.626,176.367 1.765 C 175.078 1.903,172.617 2.333,170.898 2.720 C 169.180 3.107,167.070 3.540,166.211 3.683 C 156.666 5.271,142.325 10.773,129.297 17.844 C 119.193 23.329,109.985 31.751,102.868 42.016 C 101.219 44.394,98.161 51.144,97.392 54.102 C 90.998 78.686,103.343 101.015,133.008 118.525 C 135.156 119.793,137.569 121.242,138.371 121.744 C 139.172 122.246,139.982 122.656,140.171 122.656 C 140.361 122.656,141.156 123.090,141.938 123.621 C 142.720 124.152,143.359 124.482,143.359 124.354 C 143.359 124.227,143.579 124.300,143.848 124.517 C 144.735 125.232,154.323 129.935,163.281 134.050 C 171.466 137.809,175.186 139.453,175.509 139.453 C 175.647 139.453,176.688 139.876,177.821 140.393 C 178.955 140.910,182.080 142.238,184.766 143.345 C 187.451 144.451,190.805 145.874,192.219 146.507 C 193.632 147.139,194.909 147.656,195.055 147.656 C 195.201 147.656,196.066 147.981,196.977 148.379 C 200.751 150.025,204.509 151.564,204.753 151.563 C 204.896 151.563,205.863 151.944,206.901 152.409 C 207.940 152.875,208.877 153.286,208.984 153.322 C 209.092 153.358,209.487 153.504,209.863 153.647 C 210.239 153.790,210.767 153.983,211.035 154.077 C 211.304 154.172,214.336 155.410,217.773 156.828 C 221.211 158.247,224.199 159.462,224.414 159.527 C 224.843 159.657,226.483 160.318,228.314 161.100 C 228.962 161.376,230.811 162.146,232.422 162.812 C 240.655 166.211,243.197 167.312,243.535 167.625 C 243.739 167.814,244.119 167.969,244.379 167.969 C 244.639 167.969,246.230 168.592,247.914 169.353 C 253.139 171.714,254.036 172.119,256.250 173.112 C 259.733 174.675,275.743 182.688,278.711 184.355 C 280.215 185.199,282.148 186.273,283.008 186.743 C 284.752 187.695,290.536 191.663,291.336 192.457 C 291.620 192.738,291.984 192.969,292.145 192.969 C 292.614 192.969,300.511 200.795,302.174 202.909 C 304.897 206.371,308.594 212.689,308.594 213.883 C 308.594 214.142,308.934 215.124,309.351 216.065 C 313.039 224.402,311.785 248.608,307.206 257.462 C 306.886 258.080,306.654 258.631,306.690 258.687 C 306.824 258.897,306.135 260.869,304.460 265.073 C 302.238 270.649,302.216 270.530,305.197 269.179 C 306.099 268.771,308.594 267.641,310.742 266.669 C 315.550 264.493,321.516 261.446,323.723 260.038 C 324.632 259.459,325.533 258.984,325.726 258.984 C 325.918 258.984,326.282 258.737,326.533 258.434 C 326.784 258.132,327.552 257.596,328.241 257.243 C 330.563 256.052,338.926 250.270,339.844 249.221 C 339.951 249.098,341.270 247.970,342.773 246.715 C 372.917 221.547,381.997 185.789,364.902 159.570 C 358.754 150.142,347.222 139.416,337.165 133.772 C 336.597 133.454,335.869 133.033,335.547 132.837 C 330.891 130.009,318.025 123.421,310.352 119.935 C 306.914 118.374,303.662 116.864,303.125 116.580 C 302.588 116.296,299.775 115.024,296.875 113.754 C 288.400 110.043,286.830 109.375,286.583 109.375 C 286.455 109.375,285.422 108.953,284.288 108.437 C 279.528 106.270,262.326 99.042,260.938 98.625 C 260.400 98.464,259.614 98.092,259.190 97.799 C 258.767 97.506,258.142 97.266,257.802 97.266 C 257.463 97.266,256.315 96.848,255.252 96.338 C 254.190 95.828,252.617 95.135,251.758 94.800 C 250.898 94.464,248.701 93.550,246.875 92.768 C 245.049 91.987,242.939 91.119,242.188 90.841 C 241.436 90.562,239.941 89.946,238.867 89.471 C 237.793 88.996,235.859 88.156,234.570 87.603 C 208.155 76.276,194.211 69.125,187.450 63.435 C 170.245 48.960,167.763 28.852,181.372 14.195 C 183.343 12.072,187.536 8.594,188.123 8.594 C 188.284 8.594,188.693 8.352,189.032 8.057 C 191.183 6.183,198.979 3.036,204.213 1.927 C 211.962 0.286,211.163 -0.009,199.098 0.038 C 191.901 0.066,187.842 0.269,183.984 0.795 M95.405 130.503 C 95.247 130.645,93.908 131.238,92.430 131.820 C 89.590 132.938,88.782 133.312,83.789 135.824 C 78.063 138.704,71.923 142.255,68.262 144.803 C 60.996 149.859,60.166 150.489,56.445 153.775 C 50.523 159.004,43.420 166.569,40.917 170.313 C 40.558 170.850,39.554 172.318,38.687 173.575 C 37.819 174.832,37.109 175.905,37.109 175.960 C 37.109 176.015,36.229 177.589,35.154 179.458 C 26.142 195.119,24.019 215.848,29.929 230.469 C 35.459 244.147,46.716 256.317,63.086 266.313 C 71.388 271.382,91.463 281.231,106.641 287.681 C 108.037 288.274,109.883 289.082,110.742 289.476 C 113.212 290.607,115.894 291.754,120.313 293.567 C 122.568 294.493,125.732 295.811,127.344 296.497 C 128.955 297.183,132.383 298.592,134.961 299.630 C 141.883 302.416,145.049 303.750,146.422 304.460 C 147.096 304.809,147.750 305.064,147.875 305.028 C 148.000 304.991,149.145 305.427,150.419 305.996 C 151.692 306.565,153.789 307.471,155.078 308.008 C 157.617 309.066,160.167 310.148,165.039 312.234 C 166.758 312.970,169.746 314.238,171.680 315.051 C 175.469 316.645,175.333 316.586,178.516 318.048 C 179.697 318.590,181.895 319.597,183.398 320.284 C 201.491 328.548,209.595 333.419,216.250 340.025 C 225.347 349.056,229.215 360.677,226.537 370.934 C 226.094 372.633,225.669 374.307,225.593 374.653 C 224.818 378.211,220.096 384.686,215.154 388.968 C 212.529 391.242,205.122 395.421,202.912 395.874 C 202.492 395.960,201.504 396.304,200.717 396.639 C 199.930 396.974,197.557 397.610,195.444 398.053 C 187.389 399.741,189.103 400.177,202.656 399.889 C 222.380 399.470,241.099 395.667,257.227 388.803 C 263.292 386.222,273.446 380.744,276.636 378.333 C 277.213 377.896,278.532 376.929,279.565 376.184 C 298.118 362.815,307.351 343.044,303.375 325.195 C 302.992 323.477,302.604 321.698,302.513 321.242 C 299.709 307.264,284.808 291.270,263.376 279.233 C 257.082 275.698,235.264 264.844,234.453 264.844 C 234.296 264.844,233.471 264.470,232.619 264.013 C 231.766 263.556,230.451 262.962,229.695 262.692 C 228.096 262.121,224.071 260.355,222.656 259.604 C 222.119 259.318,220.981 258.860,220.127 258.585 C 219.272 258.309,218.042 257.760,217.392 257.364 C 216.742 256.968,215.996 256.643,215.732 256.642 C 215.469 256.641,214.103 256.113,212.695 255.469 C 211.288 254.824,209.970 254.297,209.766 254.297 C 209.563 254.297,208.644 253.965,207.725 253.560 C 205.497 252.577,202.051 251.145,198.242 249.621 C 196.523 248.932,194.326 248.040,193.359 247.638 C 188.749 245.721,185.330 244.354,185.125 244.345 C 185.000 244.340,184.033 243.962,182.976 243.504 C 181.919 243.046,179.648 242.111,177.930 241.425 C 176.211 240.739,173.878 239.751,172.745 239.229 C 171.613 238.708,170.513 238.281,170.302 238.281 C 170.091 238.281,168.996 237.829,167.869 237.277 C 166.742 236.724,165.478 236.201,165.060 236.113 C 164.641 236.025,163.411 235.534,162.325 235.021 C 161.240 234.509,159.297 233.645,158.008 233.102 C 153.963 231.397,148.881 229.163,143.555 226.748 C 131.140 221.120,116.356 213.188,111.291 209.438 C 104.428 204.357,101.857 202.034,98.470 197.852 C 87.002 183.690,84.923 162.307,93.010 141.699 C 93.411 140.679,93.655 139.844,93.554 139.844 C 93.452 139.844,93.806 138.855,94.341 137.647 C 94.875 136.438,95.313 135.295,95.313 135.106 C 95.313 134.917,95.752 133.851,96.289 132.737 C 97.478 130.273,97.001 129.070,95.405 130.503 "
          stroke="none" fill="#1081fc" fill-rule="evenodd"></path>
  </g>
</svg>